<svg width="183" height="73" viewBox="0 0 183 73" fill="none" xmlns="http://www.w3.org/2000/svg">
<path d="M77.3595 60.95H89.7043V26.5559H77.3595V60.95ZM83.5319 22.9732C86.8864 22.9732 89.6148 20.4429 89.6148 17.3304C89.6148 14.2179 86.8864 11.6876 83.5319 11.6876C80.1773 11.6876 77.449 14.2179 77.449 17.3304C77.449 20.4429 80.1773 22.9732 83.5319 22.9732Z" fill="#2E2E2E"/>
<path d="M96.3519 60.95H126.498V51.5454H112.275V51.3662L125.961 34.0796V26.5559H96.8886V35.9606H111.38V36.1397L96.3519 54.1429V60.95Z" fill="#2E2E2E"/>
<path d="M133.682 60.95H163.829V51.5454H149.605V51.3662L163.292 34.0796V26.5559H134.219V35.9606H148.711V36.1397L133.682 54.1429V60.95Z" fill="#2E2E2E"/>
<path d="M170.655 60.95H183V26.5559H170.655V60.95ZM176.828 22.9732C180.182 22.9732 182.911 20.4429 182.911 17.3304C182.911 14.2179 180.182 11.6876 176.828 11.6876C173.473 11.6876 170.745 14.2179 170.745 17.3304C170.745 20.4429 173.473 22.9732 176.828 22.9732Z" fill="#2E2E2E"/>
<path d="M10.665 27.1601C7.37681 25.262 7.37682 22.1847 10.665 20.2867L26.2957 11.2643C29.584 9.36628 34.9152 9.36628 38.2035 11.2643L53.8342 20.2867C57.1224 22.1847 57.1224 25.2621 53.8342 27.1601L38.2035 36.1825C34.9152 38.0805 29.584 38.0805 26.2957 36.1825L10.665 27.1601Z" fill="white"/>
<path fill-rule="evenodd" clip-rule="evenodd" d="M27.7842 12.1235L12.1535 21.1459C9.68734 22.5694 9.68734 24.8774 12.1535 26.3009L27.7842 35.3233C30.2504 36.7468 34.2488 36.7468 36.715 35.3233L52.3457 26.3009C54.8119 24.8774 54.8119 22.5694 52.3457 21.1459L36.715 12.1235C34.2488 10.7 30.2504 10.7 27.7842 12.1235ZM10.665 20.2867C7.37682 22.1847 7.37681 25.262 10.665 27.1601L26.2957 36.1825C29.584 38.0805 34.9152 38.0805 38.2035 36.1825L53.8342 27.1601C57.1224 25.2621 57.1224 22.1847 53.8342 20.2867L38.2035 11.2643C34.9152 9.36628 29.584 9.36628 26.2957 11.2643L10.665 20.2867Z" fill="#2E2E2E"/>
<path d="M32.7038 60.7137C34.2464 60.7137 35.951 60.3909 37.9295 59.2486L48.3256 53.2468C53.0589 50.5141 56.8963 43.8685 56.8965 38.4035L56.8969 26.4005C56.8972 20.9354 53.0601 18.7204 48.3267 21.4531L37.9307 27.455C35.7429 28.7181 33.7466 30.817 32.2321 33.2489C30.7423 30.944 28.8204 28.9643 26.7226 27.7532L16.3265 21.7513C11.5932 19.0186 7.75614 21.2336 7.75635 26.6986L7.7568 38.7016C7.75701 44.1666 11.5944 50.8122 16.3277 53.5449L26.7238 59.5468C29.0374 60.8825 30.4358 60.7137 32.7038 60.7137Z" fill="#2E2E2E"/>
</svg>
