<svg width="183" height="72" viewBox="0 0 183 72" fill="none" xmlns="http://www.w3.org/2000/svg">
<path d="M77.3595 60.757H89.7043V26.3629H77.3595V60.757ZM83.5319 22.7802C86.8864 22.7802 89.6148 20.2499 89.6148 17.1374C89.6148 14.0249 86.8864 11.4946 83.5319 11.4946C80.1773 11.4946 77.449 14.0249 77.449 17.1374C77.449 20.2499 80.1773 22.7802 83.5319 22.7802Z" fill="white"/>
<path d="M96.3519 60.757H126.498V51.3524H112.275V51.1733L125.961 33.8866V26.3629H96.8886V35.7676H111.38V35.9467L96.3519 53.9499V60.757Z" fill="white"/>
<path d="M133.682 60.757H163.829V51.3524H149.605V51.1733L163.292 33.8866V26.3629H134.219V35.7676H148.711V35.9467L133.682 53.9499V60.757Z" fill="white"/>
<path d="M170.655 60.757H183V26.3629H170.655V60.757ZM176.828 22.7802C180.182 22.7802 182.911 20.2499 182.911 17.1374C182.911 14.0249 180.182 11.4946 176.828 11.4946C173.473 11.4946 170.745 14.0249 170.745 17.1374C170.745 20.2499 173.473 22.7802 176.828 22.7802Z" fill="white"/>
<path d="M10.665 27.967C7.37681 26.069 7.37682 22.9917 10.665 21.0936L26.2957 12.0713C29.584 10.1732 34.9152 10.1732 38.2035 12.0713L53.8342 21.0936C57.1224 22.9917 57.1224 26.069 53.8342 27.967L38.2035 36.9894C34.9152 38.8874 29.584 38.8874 26.2957 36.9894L10.665 27.967Z" fill="white"/>
<path fill-rule="evenodd" clip-rule="evenodd" d="M27.7842 12.9304L12.1535 21.9528C9.68734 23.3763 9.68734 25.6843 12.1535 27.1079L27.7842 36.1302C30.2504 37.5538 34.2488 37.5538 36.715 36.1302L52.3457 27.1079C54.8119 25.6843 54.8119 23.3763 52.3457 21.9528L36.715 12.9304C34.2488 11.5069 30.2504 11.5069 27.7842 12.9304ZM10.665 21.0936C7.37682 22.9917 7.37681 26.069 10.665 27.967L26.2957 36.9894C29.584 38.8874 34.9152 38.8874 38.2035 36.9894L53.8342 27.967C57.1224 26.069 57.1224 22.9917 53.8342 21.0936L38.2035 12.0713C34.9152 10.1732 29.584 10.1732 26.2957 12.0713L10.665 21.0936Z" fill="#2E2E2E"/>
<mask id="path-4-inside-1_1234_1110" fill="white">
<path d="M32.9474 59.4311C34.49 59.4311 36.1947 59.1083 38.1731 57.966L48.5692 51.9642C53.3026 49.2315 57.1399 42.5859 57.1401 37.1209L57.1406 25.1179C57.1408 19.6529 53.3038 17.4379 48.5704 20.1706L38.1743 26.1724C35.9866 27.4355 33.9902 29.5344 32.4757 31.9663C30.9859 29.6614 29.0641 27.6817 26.9663 26.4706L16.5702 20.4687C11.8368 17.736 7.99979 19.951 8 25.416L8.00045 37.419C8.00066 42.8841 11.838 49.5296 16.5714 52.2623L26.9675 58.2642C29.281 59.5999 30.6794 59.4311 32.9474 59.4311Z"/>
</mask>
<path d="M32.9474 59.4311C34.49 59.4311 36.1947 59.1083 38.1731 57.966L48.5692 51.9642C53.3026 49.2315 57.1399 42.5859 57.1401 37.1209L57.1406 25.1179C57.1408 19.6529 53.3038 17.4379 48.5704 20.1706L38.1743 26.1724C35.9866 27.4355 33.9902 29.5344 32.4757 31.9663C30.9859 29.6614 29.0641 27.6817 26.9663 26.4706L16.5702 20.4687C11.8368 17.736 7.99979 19.951 8 25.416L8.00045 37.419C8.00066 42.8841 11.838 49.5296 16.5714 52.2623L26.9675 58.2642C29.281 59.5999 30.6794 59.4311 32.9474 59.4311Z" fill="#2E2E2E"/>
<path d="M38.1731 57.966L37.6732 57.1L37.6732 57.1L38.1731 57.966ZM48.5692 51.9642L49.0692 52.8302L49.0692 52.8302L48.5692 51.9642ZM57.1401 37.1209L56.1401 37.1208L56.1401 37.1208L57.1401 37.1209ZM57.1406 25.1179L58.1406 25.1179L58.1406 25.1179L57.1406 25.1179ZM48.5704 20.1706L48.0704 19.3045L48.0704 19.3045L48.5704 20.1706ZM38.1743 26.1724L37.6744 25.3064L37.6744 25.3064L38.1743 26.1724ZM32.4757 31.9663L31.6359 32.5092L32.4914 33.8328L33.3246 32.495L32.4757 31.9663ZM26.9663 26.4706L26.4663 27.3366L26.4663 27.3366L26.9663 26.4706ZM16.5702 20.4687L17.0702 19.6027L17.0702 19.6027L16.5702 20.4687ZM8 25.416L7 25.4161L8 25.416ZM8.00045 37.419L9.00045 37.419L8.00045 37.419ZM16.5714 52.2623L16.0714 53.1284L16.0714 53.1284L16.5714 52.2623ZM26.9675 58.2642L26.4675 59.1302L26.4675 59.1302L26.9675 58.2642ZM37.6732 57.1C35.8576 58.1482 34.3276 58.4311 32.9474 58.4311V60.4311C34.6525 60.4311 36.5317 60.0684 38.6731 58.8321L37.6732 57.1ZM48.0692 51.0981L37.6732 57.1L38.6731 58.8321L49.0692 52.8302L48.0692 51.0981ZM56.1401 37.1208C56.1401 39.6365 55.2501 42.4927 53.7636 45.0671C52.2771 47.6415 50.2481 49.8402 48.0692 51.0981L49.0692 52.8302C51.6237 51.3554 53.8801 48.865 55.4956 46.0672C57.1112 43.2694 58.14 40.0703 58.1401 37.1209L56.1401 37.1208ZM56.1406 25.1178L56.1401 37.1208L58.1401 37.1209L58.1406 25.1179L56.1406 25.1178ZM49.0704 21.0366C51.2549 19.7754 52.9982 19.7824 54.1307 20.4361C55.2631 21.0898 56.1407 22.5957 56.1406 25.1178L58.1406 25.1179C58.1407 22.175 57.1 19.8409 55.1306 18.704C53.1612 17.5672 50.6193 17.833 48.0704 19.3045L49.0704 21.0366ZM38.6743 27.0385L49.0704 21.0366L48.0704 19.3045L37.6744 25.3064L38.6743 27.0385ZM33.3246 32.495C34.7749 30.1661 36.6617 28.2004 38.6743 27.0385L37.6744 25.3064C35.3114 26.6706 33.2056 28.9027 31.6269 31.4377L33.3246 32.495ZM33.3155 31.4235C31.7618 29.0197 29.7328 26.9131 27.4663 25.6046L26.4663 27.3366C28.3954 28.4503 30.21 30.3032 31.6359 32.5092L33.3155 31.4235ZM27.4663 25.6046L17.0702 19.6027L16.0702 21.3347L26.4663 27.3366L27.4663 25.6046ZM17.0702 19.6027C14.5213 18.1312 11.9794 17.8653 10.0101 19.0022C8.04065 20.1391 6.99989 22.4732 7 25.4161L9 25.416C8.9999 22.8939 9.87755 21.388 11.0099 20.7343C12.1424 20.0806 13.8857 20.0736 16.0702 21.3347L17.0702 19.6027ZM7 25.4161L7.00045 37.4191L9.00045 37.419L9 25.416L7 25.4161ZM7.00045 37.4191C7.00056 40.3684 8.02944 43.5675 9.64498 46.3653C11.2605 49.1632 13.5169 51.6536 16.0714 53.1284L17.0714 51.3963C14.8925 50.1383 12.8635 47.9396 11.377 45.3652C9.89045 42.7909 9.00055 39.9346 9.00045 37.419L7.00045 37.4191ZM16.0714 53.1284L26.4675 59.1302L27.4674 57.3982L17.0714 51.3963L16.0714 53.1284ZM26.4675 59.1302C29.0487 60.6204 30.7209 60.4311 32.9474 60.4311V58.4311C30.638 58.4311 29.5133 58.5793 27.4674 57.3982L26.4675 59.1302Z" fill="white" mask="url(#path-4-inside-1_1234_1110)"/>
</svg>
