<svg width="183" height="72" viewBox="0 0 183 72" fill="none" xmlns="http://www.w3.org/2000/svg">
<path d="M77.3595 60.757H89.7043V26.3629H77.3595V60.757ZM83.5319 22.7802C86.8864 22.7802 89.6148 20.2499 89.6148 17.1374C89.6148 14.0249 86.8864 11.4946 83.5319 11.4946C80.1773 11.4946 77.449 14.0249 77.449 17.1374C77.449 20.2499 80.1773 22.7802 83.5319 22.7802Z" fill="white"/>
<path d="M96.3519 60.757H126.498V51.3524H112.275V51.1733L125.961 33.8866V26.3629H96.8886V35.7676H111.38V35.9467L96.3519 53.9499V60.757Z" fill="white"/>
<path d="M133.682 60.757H163.829V51.3524H149.605V51.1733L163.292 33.8866V26.3629H134.219V35.7676H148.711V35.9467L133.682 53.9499V60.757Z" fill="white"/>
<path d="M170.655 60.757H183V26.3629H170.655V60.757ZM176.828 22.7802C180.182 22.7802 182.911 20.2499 182.911 17.1374C182.911 14.0249 180.182 11.4946 176.828 11.4946C173.473 11.4946 170.745 14.0249 170.745 17.1374C170.745 20.2499 173.473 22.7802 176.828 22.7802Z" fill="white"/>
<path d="M10.665 26.967C7.37681 25.069 7.37682 21.9917 10.665 20.0936L26.2957 11.0713C29.584 9.17323 34.9152 9.17323 38.2035 11.0713L53.8342 20.0936C57.1224 21.9917 57.1224 25.069 53.8342 26.967L38.2035 35.9894C34.9152 37.8874 29.584 37.8874 26.2957 35.9894L10.665 26.967Z" fill="white"/>
<path fill-rule="evenodd" clip-rule="evenodd" d="M27.7842 11.9304L12.1535 20.9528C9.68734 22.3763 9.68734 24.6843 12.1535 26.1079L27.7842 35.1302C30.2504 36.5538 34.2488 36.5538 36.715 35.1302L52.3457 26.1079C54.8119 24.6843 54.8119 22.3763 52.3457 20.9528L36.715 11.9304C34.2488 10.5069 30.2504 10.5069 27.7842 11.9304ZM10.665 20.0936C7.37682 21.9917 7.37681 25.069 10.665 26.967L26.2957 35.9894C29.584 37.8874 34.9152 37.8874 38.2035 35.9894L53.8342 26.967C57.1224 25.069 57.1224 21.9917 53.8342 20.0936L38.2035 11.0713C34.9152 9.17323 29.584 9.17323 26.2957 11.0713L10.665 20.0936Z" fill="#2E2E2E"/>
<path d="M32.7038 60.5208C34.2464 60.5208 35.951 60.1979 37.9295 59.0557L48.3256 53.0538C53.0589 50.3211 56.8963 43.6756 56.8965 38.2105L56.8969 26.2075C56.8972 20.7425 53.0601 18.5275 48.3267 21.2602L37.9307 27.2621C35.7429 28.5251 33.7466 30.6241 32.2321 33.056C30.7423 30.7511 28.8204 28.7714 26.7226 27.5602L16.3265 21.5584C11.5932 18.8257 7.75614 21.0407 7.75635 26.5057L7.7568 38.5087C7.75701 43.9737 11.5944 50.6193 16.3277 53.352L26.7238 59.3539C29.0374 60.6895 30.4358 60.5208 32.7038 60.5208Z" fill="#2E2E2E"/>
</svg>
